<mxfile host="app.diagrams.net" modified="2023-12-06T11:07:08.806Z" agent="Mozilla/5.0 (Windows NT 10.0; Win64; x64; rv:120.0) Gecko/20100101 Firefox/120.0" version="22.1.5" etag="cFtIwtWOdO5EPIOQ1F8i" type="github">
  <diagram name="Page-1" id="dUtpkaRlZEYvX8qxcN01">
    <mxGraphModel>
      <root>
        <mxCell id="0" />
        <mxCell id="1" parent="0" />
      </root>
    </mxGraphModel>
  </diagram>
</mxfile>
